<svg viewBox="0 0 563 705" xmlns="http://www.w3.org/2000/svg" fill-rule="evenodd" clip-rule="evenodd" stroke-linejoin="round" stroke-miterlimit="2"><g fill-rule="nonzero"><path d="M23.566 352.08c-2.274 2.232-3.415 4.988-3.415 8.262 0 3.273 1.141 6.023 3.415 8.241 2.275 2.224 5.123 3.337 8.546 3.337a14.76 14.76 0 003.911-.539c1.297-.354 2.395-.808 3.281-1.367a24.82 24.82 0 002.345-1.644c.68-.546 1.205-.992 1.587-1.354l.461-.531 8.999 9.523c-.177.27-.454.617-.822 1.049-.361.439-1.205 1.205-2.508 2.303a28.672 28.672 0 01-4.181 2.912c-1.481.843-3.437 1.609-5.881 2.282a27.951 27.951 0 01-7.525 1.02c-7.596 0-13.987-2.487-19.167-7.447-5.187-4.96-7.78-10.898-7.78-17.799 0-6.909 2.593-12.84 7.78-17.807 5.18-4.96 11.571-7.44 19.167-7.44 2.593 0 5.08.333 7.461.999 2.374.666 4.337 1.46 5.888 2.395 1.559.935 2.927 1.871 4.103 2.799 1.176.928 2.041 1.729 2.593 2.395l.737.971-9.197 9.558c-.128-.134-.312-.333-.546-.581-.233-.255-.722-.701-1.466-1.332a16.553 16.553 0 00-2.346-1.672c-.822-.475-1.863-.907-3.117-1.297a12.702 12.702 0 00-3.777-.581c-3.423 0-6.271 1.113-8.546 3.345z" fill="#f2672b"/><path d="M186.125 379.442h28.307v4.762h-33.437v-47.758h33.437v4.797h-28.307v15.688h28.307v4.761h-28.307v17.75z" fill="#fff"/><path d="M346.165 336.446h19.082c7.419 0 13.591 2.332 18.522 6.994 4.925 4.662 7.391 10.289 7.391 16.885 0 6.597-2.466 12.223-7.391 16.886-4.931 4.662-11.103 6.993-18.522 6.993h-19.082v-47.758zm19.082 13.655h-3.762v20.449h3.762c3.047 0 5.562-.978 7.561-2.933 1.998-1.956 2.997-4.379 2.997-7.292 0-2.912-.999-5.342-2.997-7.298-1.999-1.949-4.514-2.926-7.561-2.926z" fill="#f2672b"/><path d="M552.59 342.941c4.776 4.776 7.164 10.565 7.164 17.382 0 6.816-2.388 12.612-7.164 17.388-4.775 4.776-10.564 7.157-17.381 7.157-6.823 0-12.613-2.381-17.388-7.157-4.776-4.776-7.164-10.572-7.164-17.388 0-6.817 2.388-12.606 7.164-17.382 4.775-4.776 10.565-7.156 17.388-7.156 6.817 0 12.606 2.38 17.381 7.156zm-31.205 3.295c-3.756 3.798-5.633 8.496-5.633 14.087 0 5.597 1.877 10.295 5.633 14.093 3.748 3.798 8.361 5.69 13.824 5.69 5.456 0 10.062-1.892 13.817-5.69 3.756-3.798 5.633-8.496 5.633-14.093 0-5.591-1.877-10.289-5.633-14.087-3.755-3.798-8.361-5.697-13.817-5.697-5.463 0-10.076 1.899-13.824 5.697zM9.661 504.231h15.022c6.951 0 12.832 2.339 17.651 7.022 4.818 4.691 7.227 10.31 7.227 16.857 0 6.554-2.409 12.166-7.227 16.85-4.819 4.691-10.7 7.029-17.651 7.029H9.661v-47.758zm15.022 4.797h-9.892v38.199h9.892c5.598 0 10.289-1.856 14.087-5.562 3.798-3.706 5.697-8.219 5.697-13.541 0-5.314-1.899-9.828-5.697-13.541-3.798-3.705-8.489-5.555-14.087-5.555z" fill="#fff"/><path d="M214.834 510.309c5.187 4.96 7.773 10.897 7.773 17.799 0 6.909-2.586 12.839-7.773 17.799-5.187 4.967-11.571 7.447-19.167 7.447-7.596 0-13.98-2.48-19.167-7.447-5.187-4.96-7.78-10.89-7.78-17.799 0-6.902 2.593-12.839 7.78-17.799 5.187-4.96 11.571-7.448 19.167-7.448 7.596 0 13.98 2.488 19.167 7.448zm-27.415 9.594c-2.246 2.253-3.38 4.995-3.38 8.226 0 3.224 1.134 5.966 3.38 8.205 2.26 2.247 4.996 3.366 8.234 3.366 3.224 0 5.966-1.119 8.219-3.366 2.253-2.239 3.387-4.981 3.387-8.205 0-3.231-1.134-5.973-3.387-8.226-2.253-2.254-4.995-3.387-8.219-3.387-3.238 0-5.974 1.133-8.234 3.387z" fill="#f2672b"/><path d="M357.755 547.227h28.315v4.761h-33.445V504.23h33.445v4.798h-28.315v15.687h28.315v4.762h-28.315v17.75zm163.13-1.732c-4.775-4.776-7.163-10.572-7.163-17.381 0-6.824 2.388-12.613 7.163-17.389 4.776-4.776 10.565-7.156 17.382-7.156 2.423 0 4.74.333 6.965 1.013 2.218.68 4.06 1.488 5.513 2.445 1.452.956 2.728 1.92 3.826 2.898 1.098.977 1.892 1.806 2.381 2.501l.772 1.027-3.437 3.068a13.798 13.798 0 00-.595-.885c-.269-.362-.893-1.014-1.87-1.949a19.962 19.962 0 00-3.175-2.48c-1.148-.723-2.65-1.382-4.513-1.977a18.975 18.975 0 00-5.867-.907c-5.456 0-10.069 1.899-13.818 5.697-3.755 3.798-5.633 8.496-5.633 14.094 0 5.59 1.878 10.288 5.633 14.086 3.749 3.798 8.362 5.69 13.818 5.69 2.047 0 4.003-.276 5.867-.843 1.863-.567 3.415-1.254 4.648-2.055a32.395 32.395 0 003.245-2.374c.928-.793 1.594-1.488 1.998-2.083l.631-.836 3.401 3.096c-.177.27-.453.617-.822 1.049-.361.432-1.176 1.219-2.43 2.352a29.043 29.043 0 01-3.982 3.026c-1.396.893-3.232 1.686-5.506 2.388a24.078 24.078 0 01-7.05 1.049c-6.817 0-12.606-2.388-17.382-7.164zM45.465 7.161c4.776 4.776 7.164 10.565 7.164 17.388 0 6.817-2.388 12.613-7.164 17.382-4.776 4.776-10.572 7.163-17.381 7.163-6.824 0-12.613-2.387-17.389-7.163-4.776-4.769-7.164-10.565-7.164-17.382 0-6.823 2.388-12.612 7.164-17.388C15.471 2.385 21.26.004 28.084.004c6.809 0 12.605 2.381 17.381 7.157zm-31.206 3.295c-3.755 3.798-5.633 8.496-5.633 14.093 0 5.591 1.878 10.289 5.633 14.087 3.749 3.798 8.361 5.69 13.825 5.69 5.456 0 10.061-1.892 13.817-5.69 3.755-3.798 5.633-8.496 5.633-14.087 0-5.597-1.878-10.295-5.633-14.093-3.756-3.791-8.361-5.697-13.817-5.697-5.464 0-10.076 1.906-13.825 5.697z" fill="#fff"/><path d="M11.84 683.71c-1.438 1.41-2.154 3.153-2.154 5.222 0 2.069.716 3.805 2.154 5.208 1.439 1.403 3.238 2.105 5.4 2.105.829 0 1.658-.107 2.48-.333.814-.227 1.509-.511 2.069-.865a16.512 16.512 0 002.487-1.892l.29-.34 5.69 6.023c-.113.17-.283.39-.517.666-.234.269-.765.758-1.594 1.453a17.775 17.775 0 01-2.636 1.842c-.936.531-2.176 1.013-3.72 1.438a17.544 17.544 0 01-4.755.645c-4.804 0-8.843-1.566-12.124-4.705C1.637 697.038 0 693.29 0 688.918c0-4.365 1.637-8.113 4.91-11.252 3.281-3.139 7.32-4.705 12.124-4.705 1.637 0 3.21.212 4.712.631 1.502.425 2.749.928 3.727 1.516a24.17 24.17 0 012.594 1.771c.744.588 1.289 1.092 1.636 1.517l.468.609-5.81 6.037a4.412 4.412 0 01-.347-.361c-.149-.163-.461-.447-.929-.843a9.662 9.662 0 00-1.488-1.056c-.517-.298-1.176-.574-1.962-.822a8.23 8.23 0 00-2.395-.369c-2.162 0-3.961.709-5.4 2.119zm62.666-6.041c3.281 3.132 4.918 6.887 4.918 11.252 0 4.365-1.637 8.12-4.918 11.252-3.28 3.139-7.319 4.712-12.116 4.712-4.804 0-8.843-1.573-12.117-4.712-3.28-3.132-4.917-6.887-4.917-11.252 0-4.365 1.637-8.12 4.917-11.252 3.274-3.139 7.313-4.705 12.117-4.705 4.797 0 8.836 1.566 12.116 4.705zm-17.324 6.065c-1.431 1.424-2.14 3.153-2.14 5.201 0 2.041.709 3.77 2.14 5.187 1.424 1.417 3.153 2.126 5.194 2.126 2.047 0 3.776-.709 5.201-2.126 1.424-1.417 2.14-3.146 2.14-5.187 0-2.048-.716-3.777-2.14-5.201-1.425-1.431-3.154-2.14-5.201-2.14-2.041 0-3.77.709-5.194 2.14zm40.777-9.909h12.067c4.684 0 8.588 1.474 11.706 4.422 3.11 2.948 4.669 6.505 4.669 10.671 0 4.173-1.559 7.731-4.669 10.678-3.118 2.948-7.022 4.422-11.706 4.422H97.959v-30.193zm12.067 8.631h-2.381v12.931h2.381c1.92 0 3.514-.616 4.776-1.856 1.268-1.233 1.899-2.771 1.899-4.613 0-1.835-.631-3.373-1.899-4.606-1.262-1.24-2.856-1.856-4.776-1.856zm44.6 13.582H169.3v7.978h-24.361v-30.192H169.3v7.986h-14.674v3.238H169.3v7.326h-14.674v3.664z" fill="#f2672b"/><path d="M197.962 704.018l-11.876-30.193h3.451l9.92 25.665 9.92-25.665h3.451l-11.855 30.193h-3.011zm37.717-3.01h17.899v3.011h-21.144v-30.192h21.144v3.033h-17.899v9.913h17.899v3.011h-17.899v11.224zm56.897 3.01h-18.763v-30.193h3.245v27.181h15.518v3.012zm42.012-26.086c3.018 3.018 4.528 6.681 4.528 10.99 0 4.308-1.51 7.971-4.528 10.99-3.019 3.018-6.682 4.527-10.99 4.527s-7.972-1.509-10.99-4.527c-3.019-3.019-4.528-6.682-4.528-10.99 0-4.309 1.509-7.972 4.528-10.99 3.018-3.019 6.682-4.528 10.99-4.528s7.971 1.509 10.99 4.528zm-19.727 2.083c-2.374 2.402-3.557 5.371-3.557 8.907 0 3.535 1.183 6.504 3.557 8.906 2.374 2.402 5.286 3.6 8.737 3.6 3.451 0 6.363-1.198 8.737-3.6 2.373-2.402 3.557-5.371 3.557-8.906 0-3.536-1.184-6.505-3.557-8.907-2.374-2.402-5.286-3.6-8.737-3.6-3.451 0-6.363 1.198-8.737 3.6zm45.168-6.19h11.437c2.791 0 5.108.907 6.944 2.714 1.842 1.814 2.756 4.075 2.756 6.774 0 2.7-.921 4.96-2.764 6.774-1.849 1.821-4.159 2.728-6.936 2.728h-8.192v11.203h-3.245v-30.193zm11.437 3.033h-8.192v12.924h8.192c1.948 0 3.514-.588 4.69-1.764 1.184-1.183 1.772-2.749 1.772-4.698 0-1.948-.588-3.514-1.772-4.691-1.176-1.183-2.742-1.771-4.69-1.771zm57.778 2.589l-12.081 15.943-12.067-15.943v24.574h-3.245v-30.193h2.798l12.514 16.397 12.499-16.397h2.806v30.193h-3.224v-24.574zm29.314 21.561h17.899v3.011h-21.144v-30.192h21.144v3.033h-17.899v9.913h17.899v3.011h-17.899v11.224zm59.489-27.183h3.217v30.193h-2.799l-18.529-24.361v24.361h-3.239v-30.193h2.799l18.551 24.383v-24.383zm22.408 0h22.214v3.033h-9.495v27.16h-3.224v-27.16h-9.495v-3.033zM181.328 41.934c-4.776-4.776-7.163-10.572-7.163-17.389 0-6.816 2.387-12.612 7.163-17.381C186.104 2.388 191.9 0 198.717 0c2.416 0 4.733.34 6.958 1.021 2.218.673 4.06 1.487 5.513 2.444 1.452.957 2.728 1.92 3.826 2.898 1.098.978 1.892 1.807 2.381 2.494l.772 1.035-3.437 3.068a13.77 13.77 0 00-.595-.886c-.269-.361-.893-1.013-1.863-1.948a20.278 20.278 0 00-3.182-2.48c-1.148-.723-2.65-1.382-4.513-1.984a19.17 19.17 0 00-5.86-.9c-5.463 0-10.076 1.899-13.825 5.697-3.755 3.798-5.633 8.496-5.633 14.086 0 5.598 1.878 10.296 5.633 14.094 3.749 3.791 8.362 5.69 13.825 5.69 2.04 0 3.996-.284 5.86-.844 1.863-.567 3.415-1.254 4.648-2.054a31.486 31.486 0 003.245-2.381c.928-.787 1.594-1.481 1.998-2.076l.631-.837 3.401 3.097c-.177.269-.453.616-.822 1.049-.361.432-1.176 1.218-2.43 2.352a29.688 29.688 0 01-3.983 3.026c-1.395.892-3.231 1.686-5.505 2.381a23.834 23.834 0 01-7.043 1.048c-6.817 0-12.613-2.381-17.389-7.156zM352.625.667v47.758h33.445v-4.762h-28.308V25.906h28.308v-4.754h-28.308V5.464h28.308V.667h-33.445zm164.163.002h15.022c6.951 0 12.832 2.338 17.651 7.021 4.818 4.691 7.227 10.31 7.227 16.857 0 6.555-2.409 12.166-7.227 16.85-4.819 4.691-10.7 7.029-17.651 7.029h-15.022V.669zm15.022 4.796h-9.892v38.2h9.892c5.598 0 10.289-1.857 14.087-5.563 3.797-3.706 5.696-8.219 5.696-13.541 0-5.314-1.899-9.827-5.696-13.533-3.798-3.713-8.489-5.563-14.087-5.563zM13.758 209.938c-4.775-4.776-7.163-10.572-7.163-17.389 0-6.816 2.388-12.605 7.163-17.381 4.776-4.776 10.565-7.157 17.382-7.157 2.423 0 4.74.333 6.965 1.014 2.218.673 4.06 1.488 5.513 2.444 1.452.957 2.728 1.921 3.826 2.898 1.098.978 1.892 1.807 2.381 2.502l.772 1.027-3.436 3.068a14.301 14.301 0 00-.596-.886c-.269-.361-.892-1.013-1.87-1.948a19.962 19.962 0 00-3.175-2.48c-1.148-.723-2.65-1.382-4.513-1.984-1.864-.595-3.82-.9-5.867-.9-5.456 0-10.069 1.899-13.818 5.697-3.755 3.798-5.633 8.496-5.633 14.086 0 5.598 1.878 10.296 5.633 14.094 3.749 3.798 8.362 5.69 13.818 5.69a20.32 20.32 0 005.867-.843c1.863-.567 3.415-1.255 4.648-2.055a31.486 31.486 0 003.245-2.381c.928-.787 1.594-1.481 1.998-2.076l.631-.836 3.401 3.096c-.177.269-.453.617-.822 1.049-.361.432-1.176 1.219-2.43 2.352a29.043 29.043 0 01-3.982 3.026c-1.396.893-3.232 1.686-5.506 2.388a24.072 24.072 0 01-7.05 1.041c-6.817 0-12.606-2.38-17.382-7.156zm199.277-34.769c4.776 4.776 7.156 10.564 7.156 17.381s-2.38 12.613-7.156 17.388c-4.776 4.776-10.572 7.157-17.389 7.157-6.816 0-12.605-2.381-17.381-7.157-4.776-4.775-7.164-10.571-7.164-17.388 0-6.817 2.388-12.605 7.164-17.381s10.565-7.157 17.381-7.157c6.817 0 12.613 2.381 17.389 7.157zm-31.206 3.294c-3.755 3.799-5.633 8.496-5.633 14.087 0 5.598 1.878 10.296 5.633 14.094 3.749 3.797 8.361 5.689 13.817 5.689 5.463 0 10.069-1.892 13.825-5.689 3.755-3.798 5.633-8.496 5.633-14.094 0-5.591-1.878-10.288-5.633-14.087-3.756-3.797-8.362-5.696-13.825-5.696-5.456 0-10.068 1.899-13.817 5.696zm167.033-9.789h15.022c6.951 0 12.832 2.338 17.65 7.022 4.819 4.691 7.228 10.303 7.228 16.857 0 6.547-2.409 12.166-7.228 16.85-4.818 4.691-10.699 7.029-17.65 7.029h-15.022v-47.758zm15.022 4.797h-9.892v38.199h9.892c5.597 0 10.288-1.856 14.086-5.562 3.798-3.706 5.697-8.219 5.697-13.541 0-5.314-1.899-9.828-5.697-13.541-3.798-3.706-8.489-5.555-14.086-5.555z" fill="#fff"/><path d="M532.475 203.811h23.213v12.619h-38.533v-47.758h38.533v12.627h-23.213v5.123h23.213v11.593h-23.213v5.796z" fill="#f2672b"/></g></svg>