<?xml version="1.0" encoding="UTF-8" standalone="no"?><!DOCTYPE svg PUBLIC "-//W3C//DTD SVG 1.1//EN" "http://www.w3.org/Graphics/SVG/1.1/DTD/svg11.dtd"><svg width="100%" height="100%" viewBox="0 0 563 705" version="1.1" xmlns="http://www.w3.org/2000/svg" xmlns:xlink="http://www.w3.org/1999/xlink" xml:space="preserve" xmlns:serif="http://www.serif.com/" style="fill-rule:evenodd;clip-rule:evenodd;stroke-linejoin:round;stroke-miterlimit:2;"><g><g><path d="M23.566,352.08c-2.274,2.232 -3.415,4.988 -3.415,8.262c0,3.273 1.141,6.023 3.415,8.241c2.275,2.224 5.123,3.337 8.546,3.337c1.311,-0 2.614,-0.184 3.911,-0.539c1.297,-0.354 2.395,-0.808 3.281,-1.367c0.886,-0.553 1.672,-1.106 2.345,-1.644c0.68,-0.546 1.205,-0.992 1.587,-1.354l0.461,-0.531l8.999,9.523c-0.177,0.27 -0.454,0.617 -0.822,1.049c-0.361,0.439 -1.205,1.205 -2.508,2.303c-1.311,1.098 -2.707,2.069 -4.181,2.912c-1.481,0.843 -3.437,1.609 -5.881,2.282c-2.445,0.68 -4.953,1.02 -7.525,1.02c-7.596,-0 -13.987,-2.487 -19.167,-7.447c-5.187,-4.96 -7.78,-10.898 -7.78,-17.799c0,-6.909 2.593,-12.84 7.78,-17.807c5.18,-4.96 11.571,-7.44 19.167,-7.44c2.593,-0 5.08,0.333 7.461,0.999c2.374,0.666 4.337,1.46 5.888,2.395c1.559,0.935 2.927,1.871 4.103,2.799c1.176,0.928 2.041,1.729 2.593,2.395l0.737,0.971l-9.197,9.558c-0.128,-0.134 -0.312,-0.333 -0.546,-0.581c-0.233,-0.255 -0.722,-0.701 -1.466,-1.332c-0.744,-0.637 -1.531,-1.19 -2.346,-1.672c-0.822,-0.475 -1.863,-0.907 -3.117,-1.297c-1.255,-0.389 -2.516,-0.581 -3.777,-0.581c-3.423,-0 -6.271,1.113 -8.546,3.345Z" style="fill:#f2672b;fill-rule:nonzero;"/><path d="M186.125,379.442l28.307,0l-0,4.762l-33.437,-0l0,-47.758l33.437,-0l-0,4.797l-28.307,-0l0,15.688l28.307,-0l-0,4.761l-28.307,-0l0,17.75Z" style="fill:#fff;fill-rule:nonzero;"/><path d="M346.165,336.446l19.082,-0c7.419,-0 13.591,2.332 18.522,6.994c4.925,4.662 7.391,10.289 7.391,16.885c0,6.597 -2.466,12.223 -7.391,16.886c-4.931,4.662 -11.103,6.993 -18.522,6.993l-19.082,-0l0,-47.758Zm19.082,13.655l-3.762,-0l0,20.449l3.762,-0c3.047,-0 5.562,-0.978 7.561,-2.933c1.998,-1.956 2.997,-4.379 2.997,-7.292c-0,-2.912 -0.999,-5.342 -2.997,-7.298c-1.999,-1.949 -4.514,-2.926 -7.561,-2.926Z" style="fill:#f2672b;fill-rule:nonzero;"/><path d="M552.59,342.941c4.776,4.776 7.164,10.565 7.164,17.382c0,6.816 -2.388,12.612 -7.164,17.388c-4.775,4.776 -10.564,7.157 -17.381,7.157c-6.823,-0 -12.613,-2.381 -17.388,-7.157c-4.776,-4.776 -7.164,-10.572 -7.164,-17.388c0,-6.817 2.388,-12.606 7.164,-17.382c4.775,-4.776 10.565,-7.156 17.388,-7.156c6.817,0 12.606,2.38 17.381,7.156Zm-31.205,3.295c-3.756,3.798 -5.633,8.496 -5.633,14.087c-0,5.597 1.877,10.295 5.633,14.093c3.748,3.798 8.361,5.69 13.824,5.69c5.456,0 10.062,-1.892 13.817,-5.69c3.756,-3.798 5.633,-8.496 5.633,-14.093c-0,-5.591 -1.877,-10.289 -5.633,-14.087c-3.755,-3.798 -8.361,-5.697 -13.817,-5.697c-5.463,0 -10.076,1.899 -13.824,5.697Z" style="fill:#fff;fill-rule:nonzero;"/><path d="M9.661,504.231l15.022,0c6.951,0 12.832,2.339 17.651,7.022c4.818,4.691 7.227,10.31 7.227,16.857c0,6.554 -2.409,12.166 -7.227,16.85c-4.819,4.691 -10.7,7.029 -17.651,7.029l-15.022,0l0,-47.758Zm15.022,4.797l-9.892,0l0,38.199l9.892,-0c5.598,-0 10.289,-1.856 14.087,-5.562c3.798,-3.706 5.697,-8.219 5.697,-13.541c-0,-5.314 -1.899,-9.828 -5.697,-13.541c-3.798,-3.705 -8.489,-5.555 -14.087,-5.555Z" style="fill:#fff;fill-rule:nonzero;"/><path d="M214.834,510.309c5.187,4.96 7.773,10.897 7.773,17.799c0,6.909 -2.586,12.839 -7.773,17.799c-5.187,4.967 -11.571,7.447 -19.167,7.447c-7.596,0 -13.98,-2.48 -19.167,-7.447c-5.187,-4.96 -7.78,-10.89 -7.78,-17.799c0,-6.902 2.593,-12.839 7.78,-17.799c5.187,-4.96 11.571,-7.448 19.167,-7.448c7.596,0 13.98,2.488 19.167,7.448Zm-27.415,9.594c-2.246,2.253 -3.38,4.995 -3.38,8.226c0,3.224 1.134,5.966 3.38,8.205c2.26,2.247 4.996,3.366 8.234,3.366c3.224,0 5.966,-1.119 8.219,-3.366c2.253,-2.239 3.387,-4.981 3.387,-8.205c0,-3.231 -1.134,-5.973 -3.387,-8.226c-2.253,-2.254 -4.995,-3.387 -8.219,-3.387c-3.238,-0 -5.974,1.133 -8.234,3.387Z" style="fill:#f2672b;fill-rule:nonzero;"/><path d="M357.755,547.227l28.315,-0l-0,4.761l-33.445,-0l-0,-47.758l33.445,-0l-0,4.798l-28.315,0l-0,15.687l28.315,-0l-0,4.762l-28.315,-0l-0,17.75Z" style="fill:#fff;fill-rule:nonzero;"/><path d="M520.885,545.495c-4.775,-4.776 -7.163,-10.572 -7.163,-17.381c0,-6.824 2.388,-12.613 7.163,-17.389c4.776,-4.776 10.565,-7.156 17.382,-7.156c2.423,-0 4.74,0.333 6.965,1.013c2.218,0.68 4.06,1.488 5.513,2.445c1.452,0.956 2.728,1.92 3.826,2.898c1.098,0.977 1.892,1.806 2.381,2.501l0.772,1.027l-3.437,3.068c-0.134,-0.226 -0.333,-0.517 -0.595,-0.885c-0.269,-0.362 -0.893,-1.014 -1.87,-1.949c-0.971,-0.935 -2.034,-1.757 -3.175,-2.48c-1.148,-0.723 -2.65,-1.382 -4.513,-1.977c-1.864,-0.602 -3.82,-0.907 -5.867,-0.907c-5.456,-0 -10.069,1.899 -13.818,5.697c-3.755,3.798 -5.633,8.496 -5.633,14.094c0,5.59 1.878,10.288 5.633,14.086c3.749,3.798 8.362,5.69 13.818,5.69c2.047,0 4.003,-0.276 5.867,-0.843c1.863,-0.567 3.415,-1.254 4.648,-2.055c1.226,-0.794 2.31,-1.587 3.245,-2.374c0.928,-0.793 1.594,-1.488 1.998,-2.083l0.631,-0.836l3.401,3.096c-0.177,0.27 -0.453,0.617 -0.822,1.049c-0.361,0.432 -1.176,1.219 -2.43,2.352c-1.254,1.134 -2.579,2.14 -3.982,3.026c-1.396,0.893 -3.232,1.686 -5.506,2.388c-2.282,0.694 -4.627,1.049 -7.05,1.049c-6.817,-0 -12.606,-2.388 -17.382,-7.164Z" style="fill:#fff;fill-rule:nonzero;"/><path d="M45.465,7.161c4.776,4.776 7.164,10.565 7.164,17.388c0,6.817 -2.388,12.613 -7.164,17.382c-4.776,4.776 -10.572,7.163 -17.381,7.163c-6.824,-0 -12.613,-2.387 -17.389,-7.163c-4.776,-4.769 -7.164,-10.565 -7.164,-17.382c0,-6.823 2.388,-12.612 7.164,-17.388c4.776,-4.776 10.565,-7.157 17.389,-7.157c6.809,-0 12.605,2.381 17.381,7.157Zm-31.206,3.295c-3.755,3.798 -5.633,8.496 -5.633,14.093c0,5.591 1.878,10.289 5.633,14.087c3.749,3.798 8.361,5.69 13.825,5.69c5.456,-0 10.061,-1.892 13.817,-5.69c3.755,-3.798 5.633,-8.496 5.633,-14.087c0,-5.597 -1.878,-10.295 -5.633,-14.093c-3.756,-3.791 -8.361,-5.697 -13.817,-5.697c-5.464,-0 -10.076,1.906 -13.825,5.697Z" style="fill:#fff;fill-rule:nonzero;"/><path d="M11.84,683.71c-1.438,1.41 -2.154,3.153 -2.154,5.222c0,2.069 0.716,3.805 2.154,5.208c1.439,1.403 3.238,2.105 5.4,2.105c0.829,-0 1.658,-0.107 2.48,-0.333c0.814,-0.227 1.509,-0.511 2.069,-0.865c0.559,-0.347 1.055,-0.701 1.488,-1.041c0.425,-0.341 0.758,-0.624 0.999,-0.851l0.29,-0.34l5.69,6.023c-0.113,0.17 -0.283,0.39 -0.517,0.666c-0.234,0.269 -0.765,0.758 -1.594,1.453c-0.822,0.694 -1.708,1.311 -2.636,1.842c-0.936,0.531 -2.176,1.013 -3.72,1.438c-1.545,0.433 -3.132,0.645 -4.755,0.645c-4.804,0 -8.843,-1.566 -12.124,-4.705c-3.273,-3.139 -4.91,-6.887 -4.91,-11.259c0,-4.365 1.637,-8.113 4.91,-11.252c3.281,-3.139 7.32,-4.705 12.124,-4.705c1.637,-0 3.21,0.212 4.712,0.631c1.502,0.425 2.749,0.928 3.727,1.516c0.985,0.588 1.85,1.183 2.594,1.771c0.744,0.588 1.289,1.092 1.636,1.517l0.468,0.609l-5.81,6.037c-0.085,-0.078 -0.206,-0.198 -0.347,-0.361c-0.149,-0.163 -0.461,-0.447 -0.929,-0.843c-0.467,-0.404 -0.963,-0.752 -1.488,-1.056c-0.517,-0.298 -1.176,-0.574 -1.962,-0.822c-0.794,-0.241 -1.595,-0.369 -2.395,-0.369c-2.162,0 -3.961,0.709 -5.4,2.119Z" style="fill:#f2672b;fill-rule:nonzero;"/><path d="M74.506,677.669c3.281,3.132 4.918,6.887 4.918,11.252c-0,4.365 -1.637,8.12 -4.918,11.252c-3.28,3.139 -7.319,4.712 -12.116,4.712c-4.804,0 -8.843,-1.573 -12.117,-4.712c-3.28,-3.132 -4.917,-6.887 -4.917,-11.252c0,-4.365 1.637,-8.12 4.917,-11.252c3.274,-3.139 7.313,-4.705 12.117,-4.705c4.797,-0 8.836,1.566 12.116,4.705Zm-17.324,6.065c-1.431,1.424 -2.14,3.153 -2.14,5.201c0,2.041 0.709,3.77 2.14,5.187c1.424,1.417 3.153,2.126 5.194,2.126c2.047,-0 3.776,-0.709 5.201,-2.126c1.424,-1.417 2.14,-3.146 2.14,-5.187c-0,-2.048 -0.716,-3.777 -2.14,-5.201c-1.425,-1.431 -3.154,-2.14 -5.201,-2.14c-2.041,-0 -3.77,0.709 -5.194,2.14Z" style="fill:#f2672b;fill-rule:nonzero;"/><path d="M97.959,673.825l12.067,0c4.684,0 8.588,1.474 11.706,4.422c3.11,2.948 4.669,6.505 4.669,10.671c0,4.173 -1.559,7.731 -4.669,10.678c-3.118,2.948 -7.022,4.422 -11.706,4.422l-12.067,0l-0,-30.193Zm12.067,8.631l-2.381,-0l0,12.931l2.381,-0c1.92,-0 3.514,-0.616 4.776,-1.856c1.268,-1.233 1.899,-2.771 1.899,-4.613c0,-1.835 -0.631,-3.373 -1.899,-4.606c-1.262,-1.24 -2.856,-1.856 -4.776,-1.856Z" style="fill:#f2672b;fill-rule:nonzero;"/><path d="M154.626,696.038l14.674,-0l0,7.978l-24.361,-0l0,-30.192l24.361,-0l0,7.986l-14.674,-0l-0,3.238l14.674,-0l0,7.326l-14.674,0l-0,3.664Z" style="fill:#f2672b;fill-rule:nonzero;"/><path d="M197.962,704.018l-11.876,-30.193l3.451,0l9.92,25.665l9.92,-25.665l3.451,0l-11.855,30.193l-3.011,0Z" style="fill:#fff;fill-rule:nonzero;"/><path d="M235.679,701.008l17.899,-0l0,3.011l-21.144,-0l0,-30.192l21.144,-0l0,3.033l-17.899,-0l0,9.913l17.899,0l0,3.011l-17.899,-0l0,11.224Z" style="fill:#fff;fill-rule:nonzero;"/><path d="M292.576,704.018l-18.763,0l0,-30.193l3.245,0l-0,27.181l15.518,-0l0,3.012Z" style="fill:#fff;fill-rule:nonzero;"/><path d="M334.588,677.932c3.018,3.018 4.528,6.681 4.528,10.99c0,4.308 -1.51,7.971 -4.528,10.99c-3.019,3.018 -6.682,4.527 -10.99,4.527c-4.308,-0 -7.972,-1.509 -10.99,-4.527c-3.019,-3.019 -4.528,-6.682 -4.528,-10.99c0,-4.309 1.509,-7.972 4.528,-10.99c3.018,-3.019 6.682,-4.528 10.99,-4.528c4.308,-0 7.971,1.509 10.99,4.528Zm-19.727,2.083c-2.374,2.402 -3.557,5.371 -3.557,8.907c0,3.535 1.183,6.504 3.557,8.906c2.374,2.402 5.286,3.6 8.737,3.6c3.451,-0 6.363,-1.198 8.737,-3.6c2.373,-2.402 3.557,-5.371 3.557,-8.906c0,-3.536 -1.184,-6.505 -3.557,-8.907c-2.374,-2.402 -5.286,-3.6 -8.737,-3.6c-3.451,-0 -6.363,1.198 -8.737,3.6Z" style="fill:#fff;fill-rule:nonzero;"/><path d="M360.029,673.825l11.437,0c2.791,0 5.108,0.907 6.944,2.714c1.842,1.814 2.756,4.075 2.756,6.774c0,2.7 -0.921,4.96 -2.764,6.774c-1.849,1.821 -4.159,2.728 -6.936,2.728l-8.192,0l0,11.203l-3.245,0l-0,-30.193Zm11.437,3.033l-8.192,-0l0,12.924l8.192,-0c1.948,-0 3.514,-0.588 4.69,-1.764c1.184,-1.183 1.772,-2.749 1.772,-4.698c0,-1.948 -0.588,-3.514 -1.772,-4.691c-1.176,-1.183 -2.742,-1.771 -4.69,-1.771Z" style="fill:#fff;fill-rule:nonzero;"/><path d="M429.244,679.447l-12.081,15.943l-12.067,-15.943l-0,24.574l-3.245,-0l-0,-30.193l2.798,0l12.514,16.397l12.499,-16.397l2.806,0l0,30.193l-3.224,-0l0,-24.574Z" style="fill:#fff;fill-rule:nonzero;"/><path d="M458.558,701.008l17.899,-0l0,3.011l-21.144,-0l0,-30.192l21.144,-0l0,3.033l-17.899,-0l0,9.913l17.899,0l0,3.011l-17.899,-0l0,11.224Z" style="fill:#fff;fill-rule:nonzero;"/><path d="M518.047,673.825l3.217,0l0,30.193l-2.799,0l-18.529,-24.361l0,24.361l-3.239,0l0,-30.193l2.799,0l18.551,24.383l-0,-24.383Z" style="fill:#fff;fill-rule:nonzero;"/><path d="M540.455,673.825l22.214,0l-0,3.033l-9.495,-0l-0,27.16l-3.224,0l-0,-27.16l-9.495,-0l0,-3.033Z" style="fill:#fff;fill-rule:nonzero;"/><path d="M181.328,41.934c-4.776,-4.776 -7.163,-10.572 -7.163,-17.389c-0,-6.816 2.387,-12.612 7.163,-17.381c4.776,-4.776 10.572,-7.164 17.389,-7.164c2.416,0 4.733,0.34 6.958,1.021c2.218,0.673 4.06,1.487 5.513,2.444c1.452,0.957 2.728,1.92 3.826,2.898c1.098,0.978 1.892,1.807 2.381,2.494l0.772,1.035l-3.437,3.068c-0.134,-0.227 -0.333,-0.517 -0.595,-0.886c-0.269,-0.361 -0.893,-1.013 -1.863,-1.948c-0.978,-0.935 -2.041,-1.758 -3.182,-2.48c-1.148,-0.723 -2.65,-1.382 -4.513,-1.984c-1.864,-0.595 -3.82,-0.9 -5.86,-0.9c-5.463,-0 -10.076,1.899 -13.825,5.697c-3.755,3.798 -5.633,8.496 -5.633,14.086c0,5.598 1.878,10.296 5.633,14.094c3.749,3.791 8.362,5.69 13.825,5.69c2.04,-0 3.996,-0.284 5.86,-0.844c1.863,-0.567 3.415,-1.254 4.648,-2.054c1.226,-0.794 2.31,-1.588 3.245,-2.381c0.928,-0.787 1.594,-1.481 1.998,-2.076l0.631,-0.837l3.401,3.097c-0.177,0.269 -0.453,0.616 -0.822,1.049c-0.361,0.432 -1.176,1.218 -2.43,2.352c-1.255,1.127 -2.58,2.14 -3.983,3.026c-1.395,0.892 -3.231,1.686 -5.505,2.381c-2.282,0.701 -4.627,1.048 -7.043,1.048c-6.817,-0 -12.613,-2.381 -17.389,-7.156Z" style="fill:#fff;fill-rule:nonzero;"/><path d="M352.625,0.667l-0,47.758l33.445,-0l-0,-4.762l-28.308,-0l0,-17.757l28.308,-0l-0,-4.754l-28.308,-0l0,-15.688l28.308,-0l-0,-4.797l-33.445,-0Z" style="fill:#fff;fill-rule:nonzero;"/><path d="M516.788,0.669l15.022,-0c6.951,-0 12.832,2.338 17.651,7.021c4.818,4.691 7.227,10.31 7.227,16.857c0,6.555 -2.409,12.166 -7.227,16.85c-4.819,4.691 -10.7,7.029 -17.651,7.029l-15.022,-0l0,-47.757Zm15.022,4.796l-9.892,-0l0,38.2l9.892,-0c5.598,-0 10.289,-1.857 14.087,-5.563c3.797,-3.706 5.696,-8.219 5.696,-13.541c0,-5.314 -1.899,-9.827 -5.696,-13.533c-3.798,-3.713 -8.489,-5.563 -14.087,-5.563Z" style="fill:#fff;fill-rule:nonzero;"/><path d="M13.758,209.938c-4.775,-4.776 -7.163,-10.572 -7.163,-17.389c0,-6.816 2.388,-12.605 7.163,-17.381c4.776,-4.776 10.565,-7.157 17.382,-7.157c2.423,-0 4.74,0.333 6.965,1.014c2.218,0.673 4.06,1.488 5.513,2.444c1.452,0.957 2.728,1.921 3.826,2.898c1.098,0.978 1.892,1.807 2.381,2.502l0.772,1.027l-3.436,3.068c-0.135,-0.227 -0.334,-0.517 -0.596,-0.886c-0.269,-0.361 -0.892,-1.013 -1.87,-1.948c-0.971,-0.935 -2.034,-1.757 -3.175,-2.48c-1.148,-0.723 -2.65,-1.382 -4.513,-1.984c-1.864,-0.595 -3.82,-0.9 -5.867,-0.9c-5.456,-0 -10.069,1.899 -13.818,5.697c-3.755,3.798 -5.633,8.496 -5.633,14.086c0,5.598 1.878,10.296 5.633,14.094c3.749,3.798 8.362,5.69 13.818,5.69c2.047,0 4.003,-0.284 5.867,-0.843c1.863,-0.567 3.415,-1.255 4.648,-2.055c1.226,-0.794 2.31,-1.588 3.245,-2.381c0.928,-0.787 1.594,-1.481 1.998,-2.076l0.631,-0.836l3.401,3.096c-0.177,0.269 -0.453,0.617 -0.822,1.049c-0.361,0.432 -1.176,1.219 -2.43,2.352c-1.254,1.134 -2.579,2.14 -3.982,3.026c-1.396,0.893 -3.232,1.686 -5.506,2.388c-2.282,0.694 -4.627,1.041 -7.05,1.041c-6.817,-0 -12.606,-2.38 -17.382,-7.156Z" style="fill:#fff;fill-rule:nonzero;"/><path d="M213.035,175.169c4.776,4.776 7.156,10.564 7.156,17.381c-0,6.817 -2.38,12.613 -7.156,17.388c-4.776,4.776 -10.572,7.157 -17.389,7.157c-6.816,0 -12.605,-2.381 -17.381,-7.157c-4.776,-4.775 -7.164,-10.571 -7.164,-17.388c-0,-6.817 2.388,-12.605 7.164,-17.381c4.776,-4.776 10.565,-7.157 17.381,-7.157c6.817,-0 12.613,2.381 17.389,7.157Zm-31.206,3.294c-3.755,3.799 -5.633,8.496 -5.633,14.087c-0,5.598 1.878,10.296 5.633,14.094c3.749,3.797 8.361,5.689 13.817,5.689c5.463,0 10.069,-1.892 13.825,-5.689c3.755,-3.798 5.633,-8.496 5.633,-14.094c0,-5.591 -1.878,-10.288 -5.633,-14.087c-3.756,-3.797 -8.362,-5.696 -13.825,-5.696c-5.456,-0 -10.068,1.899 -13.817,5.696Z" style="fill:#fff;fill-rule:nonzero;"/><path d="M348.862,168.674l15.022,-0c6.951,-0 12.832,2.338 17.65,7.022c4.819,4.691 7.228,10.303 7.228,16.857c0,6.547 -2.409,12.166 -7.228,16.85c-4.818,4.691 -10.699,7.029 -17.65,7.029l-15.022,0l-0,-47.758Zm15.022,4.797l-9.892,0l-0,38.199l9.892,-0c5.597,-0 10.288,-1.856 14.086,-5.562c3.798,-3.706 5.697,-8.219 5.697,-13.541c-0,-5.314 -1.899,-9.828 -5.697,-13.541c-3.798,-3.706 -8.489,-5.555 -14.086,-5.555Z" style="fill:#fff;fill-rule:nonzero;"/><path d="M532.475,203.811l23.213,0l0,12.619l-38.533,-0l0,-47.758l38.533,-0l0,12.627l-23.213,-0l0,5.123l23.213,-0l0,11.593l-23.213,-0l0,5.796Z" style="fill:#f2672b;fill-rule:nonzero;"/></g></g></svg>