<svg width="48" height="49" viewBox="0 0 48 49" fill="none" xmlns="http://www.w3.org/2000/svg">
<path d="M0.114258 48.5L3.48826 36.174C1.40626 32.566 0.312258 28.476 0.314258 24.282C0.320258 11.17 10.9903 0.5 24.1003 0.5C30.4623 0.502 36.4343 2.98 40.9263 7.476C45.4163 11.972 47.8883 17.948 47.8863 24.304C47.8803 37.418 37.2103 48.088 24.1003 48.088C20.1203 48.086 16.1983 47.088 12.7243 45.192L0.114258 48.5V48.5ZM13.3083 40.886C16.6603 42.876 19.8603 44.068 24.0923 44.07C34.9883 44.07 43.8643 35.202 43.8703 24.3C43.8743 13.376 35.0403 4.52 24.1083 4.516C13.2043 4.516 4.33426 13.384 4.33026 24.284C4.32826 28.734 5.63226 32.066 7.82226 35.552L5.82426 42.848L13.3083 40.886V40.886ZM36.0823 29.958C35.9343 29.71 35.5383 29.562 34.9423 29.264C34.3483 28.966 31.4263 27.528 30.8803 27.33C30.3363 27.132 29.9403 27.032 29.5423 27.628C29.1463 28.222 28.0063 29.562 27.6603 29.958C27.3143 30.354 26.9663 30.404 26.3723 30.106C25.7783 29.808 23.8623 29.182 21.5923 27.156C19.8263 25.58 18.6323 23.634 18.2863 23.038C17.9403 22.444 18.2503 22.122 18.5463 21.826C18.8143 21.56 19.1403 21.132 19.4383 20.784C19.7403 20.44 19.8383 20.192 20.0383 19.794C20.2363 19.398 20.1383 19.05 19.9883 18.752C19.8383 18.456 18.6503 15.53 18.1563 14.34C17.6723 13.182 17.1823 13.338 16.8183 13.32L15.6783 13.3C15.2823 13.3 14.6383 13.448 14.0943 14.044C13.5503 14.64 12.0143 16.076 12.0143 19.002C12.0143 21.928 14.1443 24.754 14.4403 25.15C14.7383 25.546 18.6303 31.55 24.5923 34.124C26.0103 34.736 27.1183 35.102 27.9803 35.376C29.4043 35.828 30.7003 35.764 31.7243 35.612C32.8663 35.442 35.2403 34.174 35.7363 32.786C36.2323 31.396 36.2323 30.206 36.0823 29.958V29.958Z" fill="white"/>
</svg>
