<svg width="244" height="122" viewBox="0 0 244 122" fill="none" xmlns="http://www.w3.org/2000/svg">
<path d="M0.0139771 0.908835C0.0139771 0.908835 29.127 37.2318 34.905 44.5148C40.682 37.2318 69.818 0.908835 69.818 0.908835V68.1088H63.977V20.1888L64.166 16.8838L34.905 53.7838C34.905 53.7838 5.89098 17.1838 5.64098 16.8838C5.70298 17.4348 5.82898 20.1888 5.82898 20.1888V68.1088H0.0139771V0.908835ZM151.656 21.0368C149.873 16.9511 147.327 13.2426 144.156 10.1098C140.948 6.974 137.179 4.47006 133.045 2.72883C128.746 0.899048 124.117 -0.0304002 119.445 -0.00216538C114.79 -0.0334548 110.178 0.896268 105.899 2.72883C101.783 4.47783 98.0312 6.98121 94.836 10.1098C91.6669 13.2351 89.135 16.9462 87.381 21.0368C85.5543 25.2565 84.6249 29.8098 84.652 34.4078C84.6216 38.9907 85.5512 43.529 87.381 47.7308C89.1425 51.8033 91.6738 55.4972 94.836 58.6098C98.0241 61.7348 101.779 64.2232 105.899 65.9418C110.186 67.7446 114.794 68.6577 119.445 68.6258C128.675 68.6557 137.548 65.0588 144.152 58.6098C147.317 55.4897 149.861 51.7983 151.652 47.7308C153.513 43.5372 154.459 38.9956 154.43 34.4078C154.457 29.8052 153.512 25.2487 151.656 21.0368V21.0368ZM119.5 62.8698C113.865 62.7762 108.383 61.0196 103.742 57.8207C99.1018 54.6217 95.5101 50.123 93.4181 44.8895C91.3261 39.6559 90.827 33.921 91.9836 28.4048C93.1402 22.8886 95.9009 17.8371 99.919 13.8847C103.937 9.93226 109.033 7.25516 114.568 6.18958C120.102 5.12399 125.828 5.71743 131.027 7.89535C136.225 10.0733 140.664 13.7386 143.786 18.431C146.908 23.1234 148.574 28.6337 148.575 34.2698C148.512 41.918 145.413 49.2278 139.961 54.5913C134.508 59.9548 127.148 62.9327 119.5 62.8698V62.8698ZM244.01 48.4748C244.023 51.5986 243.287 54.6799 241.863 57.4603C240.439 60.2406 238.368 62.6389 235.826 64.4538C232.327 66.9921 228.114 68.3573 223.791 68.3538C220.241 68.4 216.746 67.4802 213.679 65.6928C210.698 64.0446 208.207 61.6354 206.46 58.7108L211.413 55.7838C212.696 57.8443 214.466 59.5574 216.568 60.7718C218.802 61.9405 221.271 62.588 223.791 62.6658C227.158 62.6354 230.416 61.4671 233.036 59.3508C234.647 58.0291 235.948 56.3693 236.847 54.489C237.745 52.6087 238.22 50.5538 238.236 48.4698C238.236 39.9398 231.016 36.1698 231.016 36.1698L215.679 26.1508C215.679 26.1508 209.351 21.9338 209.351 14.8328C209.31 12.7245 209.734 10.633 210.591 8.70654C211.449 6.78005 212.719 5.06567 214.313 3.68483C216.94 1.40154 220.313 0.160277 223.794 0.195835C225.894 0.195999 227.97 0.649392 229.879 1.52506C231.789 2.40073 233.486 3.67805 234.857 5.26983L230.431 8.92183C228.696 7.0864 226.317 5.99524 223.794 5.87783C221.641 5.84432 219.556 6.63614 217.968 8.09083C215.921 9.82983 215.128 12.0698 215.128 15.0428C215.128 18.7078 218.568 21.2298 218.568 21.2298L233.905 31.2488C233.905 31.2488 244.013 36.3848 244.013 48.4748H244.01ZM198.601 48.4748C198.614 51.5986 197.878 54.6799 196.454 57.4603C195.03 60.2406 192.959 62.6389 190.417 64.4538C186.917 66.9921 182.704 68.3573 178.381 68.3538C174.832 68.3999 171.337 67.4801 168.27 65.6928C165.289 64.0446 162.798 61.6354 161.051 58.7108L166.004 55.7838C167.287 57.8443 169.057 59.5574 171.159 60.7718C173.392 61.9403 175.862 62.5879 178.381 62.6658C181.749 62.6356 185.007 61.4673 187.627 59.3508C189.238 58.0291 190.539 56.3693 191.438 54.489C192.336 52.6087 192.811 50.5538 192.827 48.4698C192.827 39.9398 185.607 36.1698 185.607 36.1698L170.27 26.1528C170.27 26.1528 163.942 21.9358 163.942 14.8348C163.901 12.7265 164.324 10.6349 165.182 8.70842C166.039 6.78189 167.31 5.06753 168.904 3.68683C171.531 1.40369 174.904 0.162429 178.384 0.197835C180.485 0.197856 182.561 0.651178 184.47 1.52685C186.379 2.40252 188.077 3.67992 189.448 5.27183L185.023 8.92383C183.287 7.08828 180.908 5.99715 178.384 5.87983C176.231 5.84648 174.147 6.63829 172.559 8.09284C170.512 9.83184 169.719 12.0718 169.719 15.0448C169.719 18.7098 173.159 21.2318 173.159 21.2318L188.5 31.2508C188.5 31.2508 198.6 36.3848 198.6 48.4748H198.601ZM24.711 111.388C26.737 111.388 28.082 112.21 28.082 113.853C28.0991 114.339 27.9519 114.816 27.6641 115.208C27.3763 115.6 26.9647 115.883 26.496 116.012C27.0609 116.124 27.5685 116.431 27.9308 116.879C28.293 117.326 28.487 117.887 28.479 118.463C28.479 120.678 26.27 121.138 24.825 121.138H20.647V111.388H24.711ZM24.611 112.502H21.836V115.538H24.936C25.97 115.538 26.876 115.138 26.876 114.02C26.878 112.864 26.014 112.5 24.612 112.5L24.611 112.502ZM24.911 116.653H21.838V120.023H24.585C25.832 120.023 27.276 119.94 27.276 118.338C27.275 116.82 25.859 116.653 24.91 116.653H24.911ZM40.522 111.22C41.5132 111.247 42.4743 111.566 43.2852 112.137C44.0961 112.708 44.7208 113.505 45.0811 114.429C45.4415 115.353 45.5215 116.362 45.3113 117.331C45.1011 118.3 44.6099 119.186 43.8991 119.877C43.1883 120.569 42.2895 121.035 41.315 121.219C40.3405 121.402 39.3336 121.294 38.4201 120.909C37.5066 120.523 36.727 119.877 36.1788 119.05C35.6306 118.224 35.3382 117.254 35.338 116.263C35.317 115.583 35.4378 114.906 35.6927 114.275C35.9476 113.645 36.331 113.074 36.8186 112.6C37.3061 112.125 37.8871 111.758 38.5245 111.52C39.162 111.282 39.8419 111.18 40.521 111.22H40.522ZM40.522 112.335C39.7473 112.345 38.993 112.584 38.3538 113.021C37.7146 113.459 37.219 114.076 36.9295 114.795C36.64 115.513 36.5695 116.301 36.7268 117.06C36.884 117.818 37.2621 118.514 37.8134 119.058C38.3648 119.602 39.0647 119.971 39.8252 120.119C40.5858 120.266 41.3729 120.185 42.0877 119.887C42.8025 119.588 43.413 119.085 43.8424 118.44C44.2718 117.795 44.5009 117.038 44.501 116.263C44.5264 115.736 44.4405 115.209 44.2488 114.718C44.0571 114.226 43.7639 113.781 43.3883 113.41C43.0128 113.039 42.5633 112.752 42.0692 112.567C41.5752 112.381 41.0476 112.302 40.521 112.335H40.522ZM61.377 111.388V117.572C61.377 120.358 59.436 121.305 57.241 121.305C55.046 121.305 53.091 120.358 53.091 117.572V111.388H54.281V117.516C54.281 119.494 55.527 120.19 57.241 120.19C58.941 120.19 60.187 119.49 60.187 117.516V111.388H61.377V111.388ZM76.477 111.388V112.5H73V121.136H71.811V112.5H68.327V111.386H76.485L76.477 111.388ZM84.671 111.388V121.138H83.481V111.388H84.671ZM101.774 122L100.287 120.537C99.3995 121.059 98.3845 121.325 97.355 121.304C96.3637 121.276 95.4025 120.957 94.5916 120.386C93.7807 119.816 93.1561 119.018 92.7957 118.095C92.4354 117.171 92.3554 116.161 92.5657 115.192C92.776 114.223 93.2673 113.337 93.9782 112.646C94.6891 111.955 95.588 111.488 96.5625 111.305C97.5371 111.121 98.5441 111.229 99.4576 111.615C100.371 112.001 101.151 112.648 101.699 113.474C102.247 114.301 102.539 115.27 102.539 116.262C102.558 117.603 102.049 118.899 101.122 119.869L102.539 121.248L101.774 122ZM97.355 120.189C98.0788 120.203 98.7945 120.036 99.437 119.702L97.709 118.002L98.474 117.265L100.287 119.047C100.981 118.288 101.357 117.29 101.335 116.262C101.345 115.473 101.121 114.698 100.69 114.037C100.259 113.375 99.6407 112.857 98.9144 112.548C98.1882 112.239 97.3863 112.152 96.6109 112.3C95.8354 112.448 95.1214 112.823 94.5596 113.377C93.9978 113.932 93.6135 114.641 93.4557 115.414C93.2979 116.187 93.3736 116.99 93.6732 117.721C93.9729 118.451 94.4829 119.076 95.1385 119.515C95.7941 119.955 96.5656 120.19 97.355 120.19V120.189ZM118.271 111.389V117.573C118.271 120.359 116.33 121.306 114.135 121.306C111.94 121.306 109.986 120.359 109.986 117.573V111.389H111.175V117.517C111.175 119.495 112.422 120.191 114.135 120.191C115.848 120.191 117.081 119.491 117.081 117.517V111.389H118.271ZM132.984 111.389V112.5H127.49V115.662H132.56V116.776H127.49V120.021H133.07V121.136H126.3V111.386H132.984V111.389ZM158.184 111.389V121.139H157V116.807H151.122V121.139H149.933V111.389H151.122V115.689H157V111.389H158.19H158.184ZM170.864 111.221C171.855 111.248 172.816 111.567 173.627 112.138C174.439 112.708 175.063 113.505 175.424 114.429C175.784 115.353 175.865 116.363 175.654 117.332C175.444 118.301 174.953 119.187 174.242 119.878C173.532 120.57 172.633 121.036 171.658 121.22C170.684 121.403 169.677 121.295 168.763 120.91C167.85 120.524 167.07 119.878 166.522 119.051C165.974 118.225 165.681 117.255 165.681 116.264C165.66 115.583 165.781 114.906 166.036 114.275C166.291 113.644 166.675 113.073 167.163 112.598C167.651 112.123 168.233 111.756 168.871 111.518C169.509 111.281 170.189 111.179 170.869 111.22L170.864 111.221ZM170.864 112.336C170.089 112.346 169.335 112.585 168.696 113.023C168.057 113.461 167.562 114.078 167.272 114.796C166.983 115.515 166.913 116.303 167.07 117.062C167.227 117.82 167.605 118.515 168.157 119.059C168.708 119.603 169.408 119.972 170.169 120.12C170.929 120.267 171.716 120.186 172.431 119.888C173.146 119.589 173.756 119.085 174.185 118.441C174.615 117.796 174.844 117.038 174.844 116.264C174.869 115.737 174.784 115.211 174.592 114.72C174.401 114.228 174.108 113.783 173.733 113.412C173.358 113.042 172.909 112.754 172.416 112.568C171.922 112.383 171.395 112.303 170.869 112.335L170.864 112.336ZM190.184 111.389V112.5H186.7V121.136H185.51V112.5H182.026V111.386H190.184V111.389ZM203.873 111.389V112.5H198.373V115.662H203.443V116.776H198.373V120.021H203.953V121.136H197.183V111.386H203.868L203.873 111.389ZM212.551 111.389V120.024H218.051V121.139H211.367V111.389H212.556H212.551Z" fill="white"/>
</svg>
